# xmcd CD database file
#
# Track frame offsets:
#	150
#	15938
#	25240
#	40916
#	53847
#	82113
#	93962
#	117299
#	129311
#	149009
#	163564
#
# Disc length: 2463 seconds
#
# Revision: 0
# Processed by: cddbd v1.5.1PL2 Copyright (c) Steve Scherf et al.
# Submitted via: CD2WAV32(JP) R3.22
#
DISCID=88099d0b
DTITLE=ANTONIO THREE - FOR WEIRD SWINGERS ONLY
DYEAR=1999
DGENRE=Blues
TTITLE0=LIGHTNIN' COLLINS
TTITLE1=PINK STAR PRIVATE TIME
TTITLE2=B.V.
TTITLE3=I'M READY
TTITLE4=+1
TTITLE5=BOSOB
TTITLE6=BO'S AFRO WIG OUT
TTITLE7=ROMANTICA DEL ROCK
TTITLE8=WEIRD SWING SECT
TTITLE9=GET OFF THE LOVE TRAIN
TTITLE10=YOUNG BAAAD ACTION TIME
EXTD=
EXTT0=
EXTT1=
EXTT2=
EXTT3=
EXTT4=
EXTT5=
EXTT6=
EXTT7=
EXTT8=
EXTT9=
EXTT10=
PLAYORDER=
